<svg width="112" height="128" viewBox="0 0 112 128" fill="none" xmlns="http://www.w3.org/2000/svg">
<g filter="url(#filter0_di_11_404)">
<rect x="24" y="24" width="64" height="64" rx="32" fill="#59A5CC"/>
<g clip-path="url(#clip0_11_404)">
<path d="M54.3266 44.4828C52.2734 44.7781 50.2859 45.6125 48.5984 47.0047L52.2266 50.6328C53.5297 48.9547 54.2563 46.8266 54.3266 44.4828ZM56 54.4062L63.4016 47.0047C61.4141 45.3641 59.0141 44.4969 56.5812 44.375C56.525 47.3703 55.5734 50.1078 53.8297 52.2359L56 54.4062ZM47.0047 48.5984C45.6125 50.2859 44.7781 52.2734 44.4828 54.3266C46.8266 54.2563 48.9594 53.5297 50.6328 52.2266L47.0047 48.5984ZM59.7641 58.1703C61.8875 56.4312 64.625 55.4797 67.625 55.4188C67.5031 52.9859 66.6359 50.5859 64.9953 48.5984L57.5938 56L59.7641 58.1703ZM56 57.5938L48.5984 64.9953C50.5859 66.6313 52.9859 67.5031 55.4188 67.625C55.4797 64.625 56.4312 61.8875 58.1703 59.7641L56 57.5938ZM64.9953 63.4016C66.3875 61.7141 67.2219 59.7266 67.5172 57.6734C65.1688 57.7484 63.0406 58.475 61.3672 59.7734L64.9953 63.4016ZM52.2359 53.8297C50.1078 55.5734 47.3703 56.5297 44.375 56.5812C44.4969 59.0141 45.3641 61.4141 47.0047 63.4016L54.4062 56L52.2359 53.8297ZM57.6734 67.5172C59.7266 67.2219 61.7141 66.3875 63.4016 64.9953L59.7734 61.3672C58.475 63.0406 57.7484 65.1734 57.6734 67.5172Z" fill="#F5F5F5"/>
</g>
</g>
<path d="M37.5003 112.152C37.4363 112.248 37.3403 112.397 37.2123 112.6C37.0949 112.803 37.0043 112.989 36.9403 113.16C36.7163 113.661 36.4389 114.221 36.1083 114.84C35.7883 115.459 35.4203 116.083 35.0043 116.712C34.5989 117.331 34.1669 117.912 33.7083 118.456C33.1109 119.128 32.4496 119.795 31.7243 120.456C31.0096 121.107 30.2523 121.709 29.4523 122.264C28.6629 122.808 27.8523 123.277 27.0203 123.672L25.3723 121.944C26.2363 121.613 27.0736 121.197 27.8843 120.696C28.6949 120.195 29.4469 119.651 30.1403 119.064C30.8336 118.477 31.4309 117.907 31.9323 117.352C32.2843 116.947 32.6149 116.515 32.9243 116.056C33.2443 115.597 33.5269 115.144 33.7723 114.696C34.0176 114.237 34.1989 113.816 34.3163 113.432C34.2096 113.432 34.0176 113.432 33.7403 113.432C33.4629 113.432 33.1376 113.432 32.7643 113.432C32.4016 113.432 32.0176 113.432 31.6123 113.432C31.2069 113.432 30.8176 113.432 30.4443 113.432C30.0816 113.432 29.7616 113.432 29.4843 113.432C29.2069 113.432 29.0096 113.432 28.8923 113.432C28.6683 113.432 28.4336 113.443 28.1883 113.464C27.9429 113.475 27.7083 113.491 27.4843 113.512C27.2709 113.523 27.1056 113.533 26.9883 113.544V111.272C27.1483 111.283 27.3456 111.299 27.5803 111.32C27.8149 111.341 28.0496 111.357 28.2843 111.368C28.5296 111.379 28.7323 111.384 28.8923 111.384C29.0309 111.384 29.2496 111.384 29.5483 111.384C29.8469 111.384 30.1883 111.384 30.5723 111.384C30.9563 111.384 31.3509 111.384 31.7563 111.384C32.1723 111.384 32.5669 111.384 32.9403 111.384C33.3243 111.384 33.6549 111.384 33.9323 111.384C34.2096 111.384 34.4123 111.384 34.5403 111.384C34.8923 111.384 35.2123 111.363 35.5003 111.32C35.7989 111.277 36.0283 111.229 36.1883 111.176L37.5003 112.152ZM33.9163 117.128C34.3323 117.459 34.7749 117.843 35.2443 118.28C35.7136 118.717 36.1776 119.171 36.6363 119.64C37.0949 120.109 37.5163 120.563 37.9003 121C38.2949 121.427 38.6256 121.8 38.8923 122.12L37.0683 123.704C36.6736 123.16 36.2203 122.595 35.7083 122.008C35.2069 121.421 34.6736 120.84 34.1083 120.264C33.5536 119.677 32.9883 119.123 32.4123 118.6L33.9163 117.128ZM52.5563 111C52.5563 111.245 52.6416 111.453 52.8123 111.624C52.9829 111.784 53.1909 111.864 53.4363 111.864C53.6709 111.864 53.8736 111.784 54.0443 111.624C54.2149 111.453 54.3003 111.245 54.3003 111C54.3003 110.765 54.2149 110.563 54.0443 110.392C53.8736 110.221 53.6709 110.136 53.4363 110.136C53.1909 110.136 52.9829 110.221 52.8123 110.392C52.6416 110.563 52.5563 110.765 52.5563 111ZM51.5803 111C51.5803 110.659 51.6603 110.349 51.8203 110.072C51.9909 109.795 52.2149 109.571 52.4923 109.4C52.7803 109.229 53.0949 109.144 53.4363 109.144C53.7776 109.144 54.0869 109.229 54.3643 109.4C54.6416 109.571 54.8603 109.795 55.0203 110.072C55.1909 110.349 55.2763 110.659 55.2763 111C55.2763 111.341 55.1909 111.656 55.0203 111.944C54.8603 112.221 54.6416 112.445 54.3643 112.616C54.0869 112.776 53.7776 112.856 53.4363 112.856C53.0949 112.856 52.7803 112.776 52.4923 112.616C52.2149 112.445 51.9909 112.221 51.8203 111.944C51.6603 111.656 51.5803 111.341 51.5803 111ZM49.3723 110.376C49.3616 110.451 49.3456 110.573 49.3243 110.744C49.3029 110.915 49.2816 111.096 49.2603 111.288C49.2389 111.469 49.2283 111.629 49.2283 111.768C49.2283 112.088 49.2283 112.44 49.2283 112.824C49.2283 113.208 49.2283 113.592 49.2283 113.976C49.2283 114.349 49.2283 114.691 49.2283 115C49.2283 115.213 49.2283 115.512 49.2283 115.896C49.2283 116.28 49.2283 116.712 49.2283 117.192C49.2283 117.672 49.2283 118.173 49.2283 118.696C49.2283 119.208 49.2283 119.709 49.2283 120.2C49.2283 120.68 49.2283 121.117 49.2283 121.512C49.2283 121.896 49.2283 122.2 49.2283 122.424C49.2283 122.883 49.0896 123.245 48.8123 123.512C48.5456 123.789 48.1296 123.928 47.5643 123.928C47.2763 123.928 46.9829 123.923 46.6843 123.912C46.3856 123.901 46.0923 123.885 45.8043 123.864C45.5163 123.843 45.2336 123.816 44.9563 123.784L44.7643 121.8C45.1056 121.864 45.4363 121.912 45.7563 121.944C46.0869 121.976 46.3483 121.992 46.5403 121.992C46.7536 121.992 46.9029 121.949 46.9883 121.864C47.0736 121.768 47.1216 121.619 47.1323 121.416C47.1323 121.32 47.1323 121.112 47.1323 120.792C47.1429 120.472 47.1483 120.093 47.1483 119.656C47.1483 119.219 47.1483 118.755 47.1483 118.264C47.1483 117.773 47.1483 117.304 47.1483 116.856C47.1483 116.408 47.1483 116.019 47.1483 115.688C47.1483 115.357 47.1483 115.128 47.1483 115C47.1483 114.808 47.1483 114.52 47.1483 114.136C47.1483 113.741 47.1483 113.325 47.1483 112.888C47.1483 112.451 47.1483 112.077 47.1483 111.768C47.1483 111.555 47.1323 111.304 47.1003 111.016C47.0683 110.717 47.0363 110.504 47.0043 110.376H49.3723ZM41.5323 112.92C41.7776 112.952 42.0336 112.984 42.3003 113.016C42.5669 113.037 42.8283 113.048 43.0843 113.048C43.2123 113.048 43.4683 113.048 43.8523 113.048C44.2469 113.048 44.7163 113.048 45.2603 113.048C45.8043 113.048 46.3856 113.048 47.0043 113.048C47.6336 113.048 48.2629 113.048 48.8923 113.048C49.5323 113.048 50.1243 113.048 50.6683 113.048C51.2229 113.048 51.7029 113.048 52.1083 113.048C52.5136 113.048 52.7963 113.048 52.9563 113.048C53.1803 113.048 53.4416 113.037 53.7403 113.016C54.0496 112.995 54.3163 112.968 54.5403 112.936V115.032C54.2949 115.011 54.0283 115 53.7403 115C53.4523 114.989 53.1963 114.984 52.9723 114.984C52.8123 114.984 52.5296 114.984 52.1243 114.984C51.7296 114.984 51.2549 114.984 50.7003 114.984C50.1563 114.984 49.5696 114.984 48.9403 114.984C48.3109 114.984 47.6816 114.984 47.0523 114.984C46.4229 114.984 45.8363 114.984 45.2923 114.984C44.7483 114.984 44.2789 114.984 43.8843 114.984C43.5003 114.984 43.2336 114.984 43.0843 114.984C42.8496 114.984 42.5883 114.989 42.3003 115C42.0229 115.011 41.7669 115.027 41.5323 115.048V112.92ZM45.6123 117.256C45.4309 117.619 45.2123 118.008 44.9563 118.424C44.7003 118.84 44.4229 119.256 44.1243 119.672C43.8363 120.088 43.5536 120.477 43.2763 120.84C42.9989 121.192 42.7483 121.485 42.5243 121.72L40.7963 120.536C41.0629 120.291 41.3349 120.003 41.6123 119.672C41.9003 119.331 42.1776 118.973 42.4443 118.6C42.7216 118.227 42.9723 117.853 43.1963 117.48C43.4309 117.107 43.6336 116.749 43.8043 116.408L45.6123 117.256ZM52.4923 116.36C52.6949 116.616 52.9189 116.92 53.1643 117.272C53.4203 117.624 53.6763 118.003 53.9323 118.408C54.1883 118.803 54.4283 119.192 54.6523 119.576C54.8763 119.949 55.0683 120.28 55.2283 120.568L53.3403 121.592C53.1696 121.251 52.9723 120.883 52.7483 120.488C52.5349 120.093 52.3109 119.699 52.0763 119.304C51.8416 118.909 51.6069 118.541 51.3723 118.2C51.1483 117.848 50.9403 117.549 50.7483 117.304L52.4923 116.36ZM57.6283 115.592C57.8203 115.603 58.0656 115.619 58.3643 115.64C58.6629 115.651 58.9723 115.661 59.2923 115.672C59.6229 115.683 59.9269 115.688 60.2043 115.688C60.4709 115.688 60.8016 115.688 61.1963 115.688C61.5909 115.688 62.0176 115.688 62.4763 115.688C62.9456 115.688 63.4256 115.688 63.9163 115.688C64.4176 115.688 64.9136 115.688 65.4043 115.688C65.8949 115.688 66.3589 115.688 66.7963 115.688C67.2336 115.688 67.6229 115.688 67.9643 115.688C68.3163 115.688 68.5936 115.688 68.7963 115.688C69.1696 115.688 69.5216 115.677 69.8523 115.656C70.1829 115.624 70.4549 115.603 70.6683 115.592V118.104C70.4869 118.093 70.2149 118.077 69.8523 118.056C69.4896 118.035 69.1376 118.024 68.7963 118.024C68.5936 118.024 68.3163 118.024 67.9643 118.024C67.6123 118.024 67.2176 118.024 66.7803 118.024C66.3429 118.024 65.8789 118.024 65.3883 118.024C64.9083 118.024 64.4176 118.024 63.9163 118.024C63.4149 118.024 62.9296 118.024 62.4603 118.024C62.0016 118.024 61.5749 118.024 61.1803 118.024C60.7963 118.024 60.4709 118.024 60.2043 118.024C59.7456 118.024 59.2763 118.035 58.7963 118.056C58.3163 118.067 57.9269 118.083 57.6283 118.104V115.592ZM79.4118 110.536C79.5184 110.728 79.6464 111.011 79.7958 111.384C79.9558 111.747 80.1158 112.147 80.2758 112.584C80.4464 113.011 80.6064 113.427 80.7558 113.832C80.9051 114.227 81.0171 114.557 81.0918 114.824L79.0758 115.528C79.0118 115.272 78.9051 114.952 78.7558 114.568C78.6171 114.173 78.4678 113.768 78.3078 113.352C78.1478 112.925 77.9878 112.52 77.8278 112.136C77.6678 111.752 77.5291 111.437 77.4118 111.192L79.4118 110.536ZM86.7238 111.816C86.6278 112.008 86.5424 112.216 86.4678 112.44C86.4038 112.664 86.3504 112.872 86.3078 113.064C86.1584 113.64 85.9558 114.285 85.6998 115C85.4544 115.715 85.1558 116.429 84.8038 117.144C84.4624 117.848 84.0678 118.493 83.6198 119.08C83.0651 119.816 82.4411 120.488 81.7478 121.096C81.0651 121.693 80.3504 122.216 79.6038 122.664C78.8571 123.112 78.0998 123.48 77.3318 123.768L75.5398 121.976C76.2758 121.763 77.0224 121.464 77.7798 121.08C78.5478 120.696 79.2838 120.232 79.9878 119.688C80.7024 119.144 81.3264 118.531 81.8598 117.848C82.2651 117.336 82.6331 116.712 82.9638 115.976C83.3051 115.24 83.5931 114.456 83.8278 113.624C84.0731 112.781 84.2384 111.949 84.3238 111.128L86.7238 111.816ZM74.9638 111.528C75.0811 111.773 75.2251 112.093 75.3958 112.488C75.5771 112.883 75.7584 113.299 75.9398 113.736C76.1211 114.173 76.2864 114.595 76.4358 115C76.5958 115.395 76.7238 115.731 76.8198 116.008L74.7558 116.76C74.6918 116.547 74.6011 116.285 74.4838 115.976C74.3771 115.667 74.2491 115.331 74.0998 114.968C73.9611 114.605 73.8171 114.248 73.6678 113.896C73.5184 113.544 73.3798 113.224 73.2518 112.936C73.1238 112.648 73.0118 112.413 72.9158 112.232L74.9638 111.528Z" fill="#59A5CC"/>
<defs>
<filter id="filter0_di_11_404" x="0" y="0" width="112" height="112" filterUnits="userSpaceOnUse" color-interpolation-filters="sRGB">
<feFlood flood-opacity="0" result="BackgroundImageFix"/>
<feColorMatrix in="SourceAlpha" type="matrix" values="0 0 0 0 0 0 0 0 0 0 0 0 0 0 0 0 0 0 127 0" result="hardAlpha"/>
<feOffset/>
<feGaussianBlur stdDeviation="12"/>
<feComposite in2="hardAlpha" operator="out"/>
<feColorMatrix type="matrix" values="0 0 0 0 0.34902 0 0 0 0 0.647059 0 0 0 0 0.8 0 0 0 0.48 0"/>
<feBlend mode="normal" in2="BackgroundImageFix" result="effect1_dropShadow_11_404"/>
<feBlend mode="normal" in="SourceGraphic" in2="effect1_dropShadow_11_404" result="shape"/>
<feColorMatrix in="SourceAlpha" type="matrix" values="0 0 0 0 0 0 0 0 0 0 0 0 0 0 0 0 0 0 127 0" result="hardAlpha"/>
<feOffset/>
<feGaussianBlur stdDeviation="12"/>
<feComposite in2="hardAlpha" operator="arithmetic" k2="-1" k3="1"/>
<feColorMatrix type="matrix" values="0 0 0 0 1 0 0 0 0 1 0 0 0 0 1 0 0 0 0.64 0"/>
<feBlend mode="normal" in2="shape" result="effect2_innerShadow_11_404"/>
</filter>
<clipPath id="clip0_11_404">
<rect width="24" height="24" fill="white" transform="translate(44 44)"/>
</clipPath>
</defs>
</svg>
